<svg width="450" height="258" viewBox="0 0 450 258" fill="none" xmlns="http://www.w3.org/2000/svg">
<g clip-path="url(#clip0_12_2)">
<path d="M218.043 117.404L229.955 113.771V113.165C233.958 111.224 238.293 110.5 242.529 109.531C247.269 104.236 252.64 103.44 259.073 102.262C264.942 103.102 271.356 102.868 277.603 102.868C281.275 102.911 290.736 96.9087 293.824 95.6242C307.399 93.0851 314.966 98.572 328.728 98.572C352.609 101.613 350.892 107.474 363.632 109.532C371.98 110.809 378.912 111.395 387.456 110.743H390.765C409.815 117.757 429.82 121.892 449 128.914V147.085H70.47C94.559 143.21 119.281 129.215 143.264 120.434C151.579 116.677 152.782 118.978 159.146 120.434C162.64 120.064 165.798 121.101 169.072 121.645C173.407 123.444 177.49 123.729 182.307 124.068C187.473 125.221 191.768 123.534 196.204 122.857C202.257 116.34 209.326 117.404 218.043 117.404Z" fill="url(#paint0_linear_12_2)"/>
<path d="M364.941 111.528C361.32 111.445 358.183 112.601 354.527 112.601C353.556 113.809 352.527 114.353 351.484 115.467C350.138 119.389 346.65 121.06 344.5 123.681C341.942 125.628 340.799 127.913 338.848 130.124C340.311 128.575 341.524 127.258 343.426 126.357C345.965 125.737 347.504 123.858 349.156 122.535C351.452 120.057 353.593 117.58 356.138 115.467C359.451 115.729 361.92 114.424 364.554 113.175C359.069 115.714 355.488 119.17 352.736 124.065C354.994 122.857 357.475 121.33 359.183 120.054C361.396 118.135 363.645 116.75 365.808 115.467C367.704 114.326 369.9 113.548 371.896 112.601C370.233 111.545 368.446 111.648 366.525 111.648C365.986 111.577 365.459 111.54 364.941 111.528ZM338.848 130.124C338.481 130.513 338.112 130.906 337.696 131.323C338.119 130.928 338.492 130.527 338.848 130.124ZM348.26 117.95C341.982 122.415 333.607 124.575 329.996 132.661C327.249 132.928 323.833 133.199 320.863 133.807C319.582 134.832 318.898 135.672 317.193 136.194C315.62 138.064 314.589 140.136 314.238 142.593C317.677 139.842 321.332 136.776 325.697 134.76C328.097 134.76 330.491 134.556 332.861 134.188C334.266 132.046 335.341 129.62 336.8 127.5C339.915 123.764 345.026 121.842 348.26 117.95Z" fill="url(#paint1_linear_12_2)"/>
<path d="M239.943 112.554C241.198 115.022 241.457 121.379 243.24 124.908C245.154 127.262 247.777 129.642 248.775 132.505C249.192 134.786 249.398 137.243 249.246 139.713C248.252 139.812 247.21 139.792 246.183 139.969C245.629 141.635 244.245 144.751 243.587 146.873H257.243C255.871 143.201 254.892 138.95 253.483 135.465C253.184 133.831 252.587 132.639 251.835 131.219C250.446 128.486 248.227 125.753 245.948 124.009C243.58 121.048 242.396 116.013 239.943 112.554ZM243.828 114.612C245.397 116.327 246.531 119.163 247.598 121.563C249.543 122.509 250.742 123.963 251.953 125.94C253.086 128.664 254.756 130.842 254.898 134.05C254.752 134.928 254.826 135.423 254.427 136.238C255.333 136.981 256.145 137.726 257.017 138.814C257.439 140.66 258.097 142.572 258.312 144.478C258.403 145.471 258.327 146.139 258.976 146.874H263.931C261.946 144.356 261.393 140.513 259.49 137.397C257.027 132.91 255.812 127.027 252.426 122.852C250.995 120.841 249.892 118.499 247.598 117.83C246.547 116.744 245.398 115.199 243.828 114.612ZM229.69 114.994C228.953 117.614 227.511 120.033 226.696 122.783C225.235 122.316 223.74 121.445 222.268 120.614C223.411 123.662 225.964 126.096 227.655 129.042C228.825 130.706 231.103 131.569 233.161 132.745C234.46 134.329 235.416 137.594 237.47 139.003C236.412 133.359 233.826 127.942 234.837 121.635C234.267 120.115 233.508 118.859 231.964 118.187L231.245 117.549L229.69 114.994ZM150.449 121.711V124.026C150.173 126.424 148.814 127.698 147.623 129.433C147.258 131.778 145.213 133.283 143.855 134.581C142.053 134.938 140.734 136.707 139.615 137.93C138.574 141.323 136.676 143.941 135.177 146.872H150.222C150.582 145.136 150.449 143.314 150.449 141.533C152.207 140.68 152.075 139.535 152.568 138.186C152.753 140.748 153.276 142.571 153.746 145.138V146.872H166.225C166.205 145.128 165.366 144.48 164.58 143.335C162.88 139.335 161.191 134.565 158.9 130.782C158.349 130.005 157.807 129.215 157.279 128.403C157.859 129.128 158.389 129.938 158.9 130.782C162.185 135.423 165.779 139.504 168.584 143.591C168.956 145.093 169.701 145.87 170.459 146.871H171.047C172.037 146.015 172.921 146.167 174.236 146.167V144.455C175.916 142.602 177.064 140.263 177.918 138.163C178.902 136.914 179.568 135.622 180.359 134.468C181.521 132.896 182.948 131.576 183.44 129.874C182.824 131.561 179.54 132.469 178.668 134.059C177.979 133.975 177.537 134.368 177.166 134.469C175.736 136.458 174.353 138.152 173.26 139.873C172.674 139.467 172.119 139.003 171.574 138.52C172.682 136.312 174.45 135.006 175.664 133.236C173.919 134.313 172.378 135.246 170.592 136.114C170.32 136.367 170.112 136.634 169.922 136.909C167.547 134.336 165.661 131.254 164.344 128.662C161.025 123.976 155.376 122.788 150.449 121.711ZM205.164 123.061C206.382 123.514 206.775 123.852 207.807 124.603C208.871 126.416 210.256 128.162 211.506 129.802C214.34 131.891 220.994 137.563 222.25 140.584C223.639 144.106 223.568 144.695 223.504 146.872H229.002C228.281 142.714 226.039 139.514 223.66 136.542C224.714 136.716 225.069 137.075 225.949 137.503C227.172 138.223 227.534 139.49 227.887 140.776C229.006 140.959 229.811 141.988 230.354 142.507C232.442 143.742 233.832 145.155 235.286 146.744C235.413 146.794 235.542 146.831 235.671 146.871H239.927C239.17 145.093 237.837 144.239 236.519 143.279C235.116 141.845 234.928 140.184 234.054 138.465C231.863 135.325 228.817 133.226 226.126 131.918C224.232 131.655 221.994 131.139 220.313 130.955C218.062 129.465 216.033 126.508 214.676 124.602C211.579 123.995 208.366 123.411 205.164 123.061ZM163.104 124.491C164.042 125.559 164.99 126.172 165.862 127.125C165.875 127.874 165.492 128.235 165.173 128.759C166.188 131.809 168.7 134.815 171.144 134.281C172.586 132.568 174.256 131.026 176.082 130.138C177.106 128.844 177.886 127.432 178.609 126.248C173.397 126.133 168.042 125.031 163.104 124.491ZM196.888 129.528C191.92 126.957 192.631 126.913 190.174 126.339C193.471 129.493 197.119 131.208 199.992 135.42C200.728 136.868 201.234 138.501 202.258 140.164C204.352 141.881 206.489 144.627 208.865 146.767C209.437 146.815 210.006 146.841 210.576 146.872H213.703C211.716 144.428 209.463 142.089 207.166 140.164C206.52 139.458 205.7 138.324 204.711 137.689C205.947 138.095 207.043 138.637 208.299 139.34H210.565C212.661 140.868 214.282 142.641 216.795 144.293C217.728 144.599 218.927 145.319 220.004 144.912C216.95 142.408 213.226 139.548 210.375 136.039C208.747 135.05 206.977 134.063 205.277 133.355C204.765 134.074 205.129 134.921 203.957 135.211C203.957 133.969 204.061 132.701 203.768 131.496C202.085 130.117 200.612 128.721 198.86 127.576C197.707 126.806 202.395 133.538 200.614 133.502L196.888 129.528ZM135.32 130.042C133.773 131.17 131.999 132.534 129.994 132.951C128.97 133.325 128.127 133.964 127.053 134.025C126.529 133.795 126.338 133.139 125.651 133.41C120.155 137.415 112.693 141.134 106.311 142.45C105.873 142.163 105.522 141.922 104.911 141.531C101.022 143.302 97.233 145.973 92.999 146.586L93.591 146.873H130.439C130.582 145.013 130.536 142.908 130.978 141.224C133.042 139.469 135.374 138.404 136.583 136.014C136.676 134.995 136.812 133.763 136.722 132.645C136.524 131.459 136.405 130.488 135.32 130.042ZM190.139 130.107C189.385 131.961 188.074 133.943 186.604 135.815C185.135 139.027 183.395 142.198 181.721 144.833C179.681 145.651 180.243 146.117 177.451 146.873H189.467V142.625C189.977 140.767 190.106 137.917 190.813 135.629C191.271 137.298 192.08 138.856 191.823 140.968C191.453 142.987 190.916 144.656 191.237 146.873H196.028C196.767 146.74 197.528 146.605 198.389 146.488C197.88 144.449 197.041 142.849 196.705 140.599C197.78 141.383 199.217 142.592 200.24 143.913C199.708 141.975 199.046 139.991 198.22 138.023C195.393 135.704 192.331 133.776 190.139 130.107Z" fill="url(#paint2_linear_12_2)"/>
<path d="M151.888 122.028C151.399 122.513 151.128 123 150.749 123.486V125.552C147.237 128.153 144.474 131.211 142.549 134.908C143.563 131.891 144.776 129.917 146.307 127.739C147.121 126.338 147.171 124.594 147.332 122.878C146.594 122.681 145.814 122.756 145.054 122.756C143.584 124.777 120.989 131.758 119.08 132.662C119.756 131.634 138.303 124.241 138.82 123.248C139.514 122.094 142.714 121.47 143.654 121.025C144.685 119.889 146.491 120.578 147.674 120.326C150.731 118.797 153.931 120.762 156.672 121.055C155.029 121.394 153.452 121.526 151.888 122.028Z" fill="#5B64A9"/>
<path d="M336.299 102.847C337.277 103.163 338.363 103.496 339.416 103.822C338.46 103.36 337.424 103.023 336.299 102.847ZM339.416 103.822C340.727 104.455 341.882 105.321 342.904 106.316C337.993 103.672 330.871 103.086 325.523 103.197V107.689C323.85 106.288 322.433 105.811 319.964 106.406C320.468 108.802 319.716 110.448 319.169 112.61C318.258 116.259 316.527 119.459 316.19 123.087C314.875 122.129 314.164 120.591 313.411 119.241C310.684 122.955 310.738 127.441 311.227 132.712C311.551 132.782 311.846 132.805 312.127 132.808C310.856 133.23 309.598 133.689 308.391 134.266C307.339 134.99 306.43 135.827 305.606 136.728C302.707 130.27 298.521 123.837 292.465 118.941C290.979 116.827 289.605 114.001 288.445 111.633C285.813 109.793 283.19 107.464 279.808 107.026C283.324 108.693 284.151 113.749 287.105 116.717C287.609 118.689 288.25 120.318 289.189 122.119C289.891 122.279 290.457 122.56 291.275 122.594C292.668 124.08 294.257 126.105 295.742 127.836C295.253 127.941 294.234 128.312 293.508 128.313C293.739 130.778 295.333 132.054 296.039 134.509C297.427 137.224 299.313 140.729 302.137 141.397C301.309 142.666 300.496 143.929 299.625 145.084C298.2 142.612 296.591 139.748 293.955 138.48C291.163 137.288 287.563 134.764 285.021 132.284C283.516 129.393 281.182 127.444 278.468 125.612C277.841 122.268 276.491 118.826 273.853 116.716C272.424 113.972 271.336 110.076 269.683 107.183C269.391 107.044 269.176 106.358 268.792 106.322C268.664 106.31 268.517 106.371 268.343 106.549C268.693 107.918 268.954 109.083 269.089 110.679C269.418 112.787 269.876 114.533 270.577 116.396C270.81 117.64 271.05 118.972 270.874 120.368C271.24 122.516 271.919 124.09 272.81 126.247C272.81 124.878 272.783 123.702 273.705 123.227C273.947 124.65 274.133 126.034 274.598 127.517C275.506 128.97 276.518 130.276 277.577 131.806C278.596 133.981 279.257 136.443 280.555 138.636C279.633 138.932 278.642 139.348 277.577 138.955C276.904 137.52 276.301 135.437 274.897 134.349C272.839 132.885 271.984 131.641 270.43 129.423C271.709 133.515 273.546 137.25 276.088 141.021C277.148 142.528 278.292 144.466 279.065 146.422L298.403 146.566C298.371 146.602 298.342 146.642 298.309 146.677L304.069 146.874C307.859 144.762 310.542 140.864 314.151 138.92C316.254 137.008 317.73 134.215 319.733 132.327C323.212 131.696 326.463 130.387 329.995 130.387C334.059 125.8 339.112 122.245 343.679 118.556C347.89 115.152 352.67 113.059 357.722 111.575C352.376 107.815 345.432 105.686 339.416 103.822ZM272.813 104.008C274.017 106.319 274.572 108.842 274.749 111.951C275.457 112.706 276.374 113.58 276.835 114.491C277.942 117.147 279.129 119.838 279.663 122.593C281.471 123.943 283.671 124.508 285.024 126.406C286.49 128.752 288.487 131.561 290.831 132.919C289.66 129.797 287.985 126.645 286.811 123.227C285.807 121.3 284.941 119.311 282.789 118.621C279.037 114.618 275.746 109.31 272.813 104.008ZM344.297 108.717C345.045 110.478 345.707 112.208 346.381 113.514C345.776 114.261 345.111 114.977 344.401 115.647C344.127 116.711 343.523 117.359 342.96 118.168C342.386 117.136 342.175 115.931 341.88 114.87C341.101 113.717 340.252 113.508 339.179 112.738C339.109 114.553 339.258 116.111 339.54 117.781C339.009 118.242 338.353 118.722 337.659 119.215C336.525 116.333 336.245 113.478 336.245 110.254C338.779 109.435 341.388 108.772 344.297 108.717ZM322.148 108.973C323.921 111.004 324.646 113.236 325.125 115.816C326.016 117.195 326.775 118.399 327.508 119.452C327.384 120.818 327.321 122.126 327.315 123.52C324.82 124.861 323.026 127.618 321.356 129.416C319.278 130.552 316.987 131.277 314.678 131.992C314.981 131.809 315.282 131.617 315.596 131.43C316.227 130.61 316.442 129.607 316.787 128.863C318.413 129.036 319.213 128.052 320.361 127.365C320.926 121.173 322.148 115.328 322.148 108.973ZM329.691 109.4C332.473 113.231 333.066 116.29 333.066 121.59C333.179 121.899 333.34 122.08 333.529 122.18C333.251 122.394 332.959 122.602 332.697 122.822H329.451C331.055 118.679 331.231 113.547 329.691 109.4Z" fill="url(#paint3_linear_12_2)"/>
<path d="M388.061 110.928C381.103 113.956 373.513 117.592 366.207 122.469C363.821 124.741 357.593 131.372 351.293 136.653C351.872 135.235 366.835 119.701 366.653 117.75C363.183 122.605 350.68 129.842 347.749 135.624C346.923 137.421 345.657 138.096 344.828 140.224C343.454 140.544 342.682 142.397 341.172 142.087C341.65 139.486 342.599 140.065 342.656 137.274C343.482 135.926 351.553 127.863 353.165 126.969C351.166 128.056 341.314 135.84 339.287 137.539C337.802 141.173 336.176 142.82 334.906 146.872H354.47C355.435 144.95 356.481 142.614 358.355 140.704C359.425 140.058 361.24 139.493 362.386 138.395C365.373 134.062 367.736 128.143 371.722 123.855C372.521 122.861 373.506 121.886 374.589 120.94C374.794 122.96 374.303 123.491 372.968 124.762C371.911 125.686 371.767 126.703 371.357 127.683C371.038 129.03 370.21 129.837 369.478 130.899C366.837 133.505 366.146 137.185 364.912 140.542C366.452 137.708 368.059 135.929 369.209 133.677C371.444 132.006 372.425 129.753 373.238 127.54C373.842 125.647 375.329 124.848 376.193 123.156C377.582 120.654 378.912 118.173 380.892 116.288C379.652 117.187 378.319 118.077 377.025 118.99C378.071 118.198 379.14 117.427 380.207 116.698C382.701 114.527 385.497 112.07 388.693 110.929L388.061 110.928ZM389.332 115.775C391.539 121.178 392.882 128.156 391.029 134.469C391.029 136.468 391.163 138.517 390.818 140.471C389.888 140.237 388.909 140.404 388.06 139.781C388.06 137.751 388.224 136.31 386.997 134.703C386.502 132.729 386.099 130.581 386.362 128.237C384.339 133.189 383.283 140.543 383.811 146.872H400.776C400.062 142.993 399.28 139.015 396.969 135.624C396.561 131.186 395.412 126.507 393.998 122.236C392.587 120.186 391.061 117.943 389.332 115.775ZM394.666 116.212C396.656 118.995 398.51 120.811 400.113 124.183C401.026 125.508 402.181 126.878 402.554 128.881C396.985 122.822 403.18 135.299 404.995 138.283C406.858 140.987 407.512 143.619 408.108 146.873H422.604C422.315 146.661 422.038 146.453 422.088 145.843C421.181 144.067 420.532 142.678 419.834 140.736C418.493 137.452 416.507 134.659 414.387 131.539C412.682 129.153 411.438 125.582 409.315 123.775C407.869 122.989 406.962 121.872 405.372 122.137C407.051 123.152 407.935 124.19 408.753 126.432C409.215 128.107 409.809 129.938 410.067 131.539C411.606 133.453 412.828 135.498 412.508 138.692C412.38 139.531 412.785 140.431 412.133 141.145C410.34 138.217 408.256 135.175 407.248 131.335C406.32 129.518 404.868 126.447 403.305 124.385C400.387 122.003 397.281 119.437 394.666 116.212ZM389.76 118.625C389.031 120.61 388.232 123.21 388.014 125.783C388.189 127.684 388.459 129.353 388.953 131.192C388.953 132.714 389.072 134.061 389.892 135.282C390.056 133.496 390.021 131.701 390.429 130.023C390.174 128.499 390.13 127.096 389.22 125.782C389.023 123.42 389.053 121.043 389.76 118.625ZM395.266 119.646C395.558 122.549 396.74 127.071 397.952 130.167C398.545 132.319 399.153 134.823 399.966 137.182C401.197 139.594 402.724 142.363 403.861 145.071C403.685 142.969 403.347 140.855 402.922 138.788C402.245 136.335 401.152 133.65 399.834 131.335C399.41 129.644 398.663 127.698 398.893 125.638C397.881 124.175 395.863 121.104 395.266 119.646ZM413.262 122.716C414.7 126.627 415.823 129.09 419.459 130.276C421.097 131.835 422.794 133.439 424.154 135.385C424.387 136.652 424.725 137.852 424.531 139.269C425.272 141.084 425.849 143.999 427.347 146.012C430.267 146.33 433.774 146.045 436.738 146.83C434.877 144.805 433.325 142.624 431.105 141.515C428.568 137.835 426.013 132.643 422.839 129.46C420.446 126.856 416.629 124.571 413.262 122.716ZM424.344 124.375C426.16 128.821 430.328 130.072 432.983 134.389C433.672 136.075 433.798 137.64 435.237 138.476C436.596 139.954 437.828 140.751 439.557 141.541C439.557 143.318 439.442 145.123 439.723 146.873H448.385V134.389C447.36 132.902 446.399 131.206 444.817 130.097C441.969 129.478 439.062 129.075 436.551 127.645C437.289 130.587 438.964 132.765 439.369 135.819C437.808 133.554 435.711 130.36 434.484 127.032C431.281 125.986 427.746 125.273 424.344 124.375Z" fill="url(#paint4_linear_12_2)"/>
<path d="M300.975 98.9097C302.1 101.07 303.948 102.937 305.379 104.871C306.134 107.557 306.703 110.495 308.256 112.821C309.524 114.625 310.853 116.863 311.305 119.143C310.307 113.82 307.636 108.052 306.733 102.16C307.927 105.026 309.746 107.684 310.29 111.194C311.428 113.623 312.657 115.309 314.015 117.697C313.118 113.867 311.544 109.997 311.476 105.774C309.802 103.988 307.765 101.872 305.888 99.8123C304.269 99.4666 302.624 99.0889 300.975 98.9097ZM295.049 99.0878C295.232 102.382 296.32 104.782 296.912 107.942L297.588 109.927C297.644 110.048 297.701 110.169 297.758 110.29C300.011 112.585 301.489 115.417 303.346 118.058C304.834 120.724 305.64 124.137 306.395 127.091C307.888 129.01 308.944 131.562 310.12 133.234C308.51 130.169 308.066 127.044 307.749 123.659C307.727 122.316 307.531 121.013 307.261 119.729C308.151 121.302 309.133 122.839 309.783 124.561C309.693 123.501 309.518 121.765 309.613 120.406C308.492 118.013 307.08 115.904 306.056 112.999C305.574 110.429 304.591 107.896 303.177 105.773C302.219 104.836 300.835 103.954 300.13 102.341C301.002 105.442 303.205 107.589 303.687 111.013C303.712 111.145 303.747 111.284 303.773 111.418C302.985 111.149 302.345 110.601 301.654 110.109C301.598 110.41 301.541 110.711 301.484 111.013C300.329 109.218 299.88 107.208 298.945 105.412C297.465 103.053 295.993 101.355 295.049 99.0878ZM292.17 100.353C291.529 103.77 287.955 104.293 285.397 105.954C287.959 108.346 290.947 109.641 291.832 113.541C292.784 115.827 293.868 118.801 296.064 120.588C299.198 122.816 301.497 125.599 303.515 129.8C302.93 126.056 300.968 122.675 299.451 119.142C298.034 116.42 296.139 113.122 295.049 109.927C294.336 108.216 294.249 111.491 294.033 109.385C292.03 102.365 297.69 112.974 292.17 100.353Z" fill="url(#paint5_linear_12_2)"/>
<path d="M378.145 118.525C381.914 116.149 385.445 113.77 389.064 112.015C389.795 111.719 390.56 111.901 391.312 111.845C390.01 114.52 388.413 116.15 387.458 118.697C387.21 117.887 386.625 117.169 386.334 116.471C385.59 117.074 384.82 117.322 384.086 117.67C383.76 120.759 384.047 124.086 383.765 127.092C382.64 125.345 382.184 123.448 381.999 121.267C381.178 121.51 380.21 122.485 379.59 122.981C379.166 123.279 378.632 122.853 378.305 122.809C377.998 125.543 376.971 128.661 375.736 131.032C375.201 131.5 374.247 131.826 373.809 132.06C371.465 135.038 370.313 138.611 369.313 142.167C368.92 139.649 369.789 137.562 370.277 135.829C370.67 132.619 372.843 129.901 374.613 127.777C377.044 125.657 377.084 121.243 378.145 118.525Z" fill="url(#paint6_linear_12_2)"/>
<path d="M323.83 146.257C325.8 143.982 326.631 140.656 327.824 138.366C329.874 138.354 331.378 137.023 333.001 136.157C335.362 133.991 337.533 130.354 339.726 128.599C343.274 127.858 348.852 123.101 351.635 121.617C345.424 127.205 332.539 134.979 329.156 143.1C330.488 143.152 331.191 142.068 332.114 141.206C334.002 139.753 335.517 138.148 337.143 136.629C335.465 139.986 333.658 142.908 333.001 146.414L323.83 146.257Z" fill="url(#paint7_linear_12_2)"/>
<path d="M22.586 103.077C22.586 105.047 22.794 105.988 21.592 107.547C21.405 107.617 20.132 104.426 19.358 108.384V110.621C18.653 109.959 18.842 110.174 17.868 109.224C17.423 108.622 18.641 106.387 16.628 107.547C16.285 108.01 16.741 109.603 15.386 109.224C15.253 107.73 15.183 105.839 14.394 104.472C12.504 105.417 12.127 104.794 10.918 107.267C10.504 107.64 13.401 110.121 9.676 108.383C9.169 107.813 9.454 105.635 7.69 106.149C7.017 107.448 6.305 107.927 5.954 109.501C4.986 108.533 5.174 107.16 3.718 107.267C2.769 108.336 1.455 108.781 0.492 110.619C-0.11 110.039 0.482 107.446 -1 108.734V147.081H74.202H96.282H102.095H124.222C119.541 145.335 109.665 141.912 106.053 141.554C105.879 140.526 105.057 142.018 104.685 141.08C104.436 140.415 104.286 140.074 103.672 139.879C103.916 138.436 103.756 137.448 102.222 137.48C102.09 136.697 102.145 136.542 101.427 136.451C101.497 136.035 101.667 135.59 101.57 135.08C101.417 133.275 99.921 134.044 100.448 135.98L99.437 136.901C99.235 136.522 98.98 136.188 98.535 136.036C98.798 135.707 98.755 135.573 99.14 135.277C98.996 134.683 98.914 134.169 98.334 133.84C97.993 133.328 97.852 132.983 97.19 133.008C97.29 132.755 97.447 132.693 97.459 132.327C96.991 131.141 96.302 131.684 95.24 131.798C95.171 131.021 94.961 130.333 94.569 129.68C94.277 129.859 93.906 129.498 93.829 130.133C93.245 129.64 92.944 129.601 92.082 129.603C91.965 128.947 91.916 128.112 91.879 127.408C90.765 127.157 90.674 128.176 90.468 129.376C90.293 129.358 89.509 129.502 89.123 129.072C89.123 128.441 89.197 128.012 88.721 127.559C88.721 126.18 89.039 124.766 87.445 124.986C87.008 126.092 87.379 128.345 86.032 128.316C85.947 127.356 85.984 126.949 85.091 126.803C84.878 127.343 84.817 128.026 84.217 128.316C83.945 127.764 83.68 127.378 83.345 126.803C83.01 126.426 82.913 126.133 82.135 126.274C82.135 125.567 82.223 124.846 81.934 124.23C81.155 121.308 80.573 125.994 80.051 126.502C79.618 126.285 79.193 126.162 78.706 126.046C78.633 125.636 78.576 125.209 78.505 124.761C78.694 123.696 78.339 123.784 76.959 123.7C76.916 123.22 77.12 122.975 76.623 122.566C76.623 115.934 74.925 124.974 73.598 124.608C73.407 122.245 72.334 123.691 72.322 125.289C71.563 125.289 71.189 125.434 71.112 124.533C71.112 123.586 71.089 123.3 70.372 122.867C70.795 122.451 71.035 122.26 71.112 121.506C70.31 121.235 70.079 121.786 69.171 121.696C69.052 121.025 68.947 120.238 68.592 119.636C67.303 116.371 67.781 122.478 65.704 121.587C65.46 120.9 65.3 120.251 64.836 119.636C64.421 119.987 64.035 119.881 63.97 120.827C63.385 120.564 62.861 120.392 62.332 119.962V118.877C61.416 118.568 60.842 118.371 59.925 119.312C59.505 118.603 58.939 117.803 58.48 117.036C58.035 111.526 56.944 116.493 55.976 118.986C55.591 118.828 55.221 119.149 54.916 118.554C54.807 117.88 54.867 117.296 54.339 116.818C54.115 117.273 53.549 118.049 53.375 118.877C53.123 118.367 52.771 117.897 52.702 117.035C52.351 116.145 51.938 115.245 51.74 114.216C50.675 114.516 49.762 114.855 48.946 115.841C48.66 115.116 48.462 114.647 47.888 114.107C47.754 113.553 47.481 113.096 47.597 112.371C47.597 106.199 45.401 113.804 45.382 116.057C45.063 115.25 45.011 114.794 44.131 114.43C44.186 113.815 44.283 113.223 44.227 112.48C43.406 111.248 42.9 111.373 42.493 113.239C42.324 113.872 42.319 115.765 41.721 115.515C41.302 115.479 40.877 115.593 40.47 115.407C40.295 115.254 40.015 114.732 39.602 114.648C39.458 114.202 39.793 113.764 39.217 113.456C38.908 112.674 38.885 112.326 37.964 112.371C37.964 111.522 38.015 110.969 37.483 110.312C37.483 106.203 36.097 111.211 35.749 111.83C35.502 112.456 35.541 112.89 34.787 113.131C34.429 113.05 33.806 112.734 33.246 112.913C32.999 112.604 33.102 111.873 32.378 111.83C32.128 111.127 32.05 110.512 31.32 110.203C31.32 108.733 31.806 106.945 30.283 106.707C30.082 107.69 28.907 108.52 29.539 110.34C28.649 111.041 28.565 111.81 27.057 112.296C26.394 111.442 26.887 109.772 25.319 110.059C25.633 108.293 26.521 107.603 24.575 106.426C24.332 103.718 24.913 102.959 22.586 103.077Z" fill="url(#paint8_linear_12_2)"/>
<g opacity="0.7">
<path d="M213.503 118.686C210.928 119.373 210.734 118.728 207.658 118.528C199.335 117.952 194.869 120.332 192.909 122.491C191.111 123.642 189.894 124.445 187.821 125.172C184.993 125.704 185.134 125.944 182.446 127.001C176.486 132.559 173.705 143.644 173.897 144.529C175.266 142.861 181.166 132.848 183.19 131.055C183.905 130.847 184.799 130.364 185.766 130.596C186.948 131.055 189.923 128.752 191.1 129.481C195.195 132.307 203.02 141.654 205.353 142.863C205.605 138.658 200.994 133.85 200.677 133.826C200.138 131.904 193.183 125.39 196.018 125.821C197.878 127.309 198.869 130.169 201.741 131.161C201.187 130.373 200.814 130.016 200.309 129.025C203.054 131.105 207.301 134.438 210.61 136.961C209.001 134.508 205.037 131.772 203.458 129.025C202.093 126.403 200.458 124.8 198.308 123.072C199.506 121.719 203.266 122.238 204.08 122.338C204.037 122.352 203.994 122.362 203.951 122.376C206.694 122.714 208.87 124.057 211.019 125.203C213.103 127.261 214.418 128.591 216.322 130.623C219.615 133.183 222.407 134.844 225.379 137.222C223.955 135.495 222.842 134.103 221.846 132.509C220.122 130.898 218.519 129.884 216.985 128.974C215.101 125.845 213.229 123.913 211.339 122.853C211.874 122.967 212.409 123.098 212.948 123.272C214.485 123.868 215.361 124.417 216.669 125.866C217.869 126.578 231.22 143.171 232.58 143.898C232.012 142.236 228.438 135.989 225.666 129.296C224.28 125.95 222.239 123.208 221.29 119.736C222.648 117.649 223.843 117.02 233.544 117.15C235.926 117.468 239.351 132.575 243.975 139.089C243.07 133.591 241.34 129.327 240.875 124.506C248.514 123.923 256.016 135.867 255.207 134.557C254.995 134.048 255.082 129.33 251.765 124.012C247.976 117.937 240.749 111.165 240.962 110.458L213.503 118.686Z" fill="url(#paint9_linear_12_2)"/>
<path d="M258.229 103.254C254.543 104.04 250.389 104.204 247.194 106.45C245.666 107.673 243.937 108.817 242.424 110.376C240.836 110.838 238.832 110.84 236.975 110.958C235.644 111.746 234.465 112.326 233.161 113.572C234.69 114.061 236.858 114.306 237.657 116.19C238.146 118.796 239.408 121.03 241.335 122.877C240.369 121.02 239.912 119.02 239.837 116.771C239.51 115.027 238.984 113.712 238.202 112.266C238.74 112.381 239.569 112.869 240.382 112.555C241.897 112.878 243.056 112.701 244.47 112.409C245.111 113.006 245.697 113.451 246.241 114.298C247.345 115.868 248.983 116.983 250.464 118.368C249.217 115.974 248.042 113.632 247.739 111.099C248.121 110.964 248.478 110.577 248.966 110.664C249.378 111.763 249.467 112.908 250.464 114.009C251.65 116.287 253.673 117.921 255.097 120.112C253.63 115.808 252 111.777 249.919 107.904C250.328 107.643 250.681 107.18 251.282 107.031C252.015 106.797 252.966 106.334 254.007 106.742C254.663 108.002 255.826 108.918 256.458 110.52C256.203 108.748 255.891 106.916 256.05 104.998C256.602 104.408 257.255 103.701 258.229 103.254ZM253.481 107.733C252.39 111.613 253.323 112.629 255.282 116.76C255.855 118.227 256.472 119.753 256.542 121.369C257.268 123.305 257.784 126.166 257.802 128.669C258.842 130.889 259.479 133.829 261.763 134.816C260.428 130.069 260.067 124.561 258.523 119.834C257.532 117.931 257.475 116.016 257.623 113.687C256.343 111.64 255.01 109.704 253.481 107.733ZM260.451 124.826C261.7 127.223 261.294 130.604 262.965 133.127C263.125 135.009 263.66 136.632 263.445 138.618C264.288 140.865 265.849 142.858 267.035 145.003C266.259 142.243 265.069 138.975 264.402 136.063C264.402 133.368 264.635 131.328 263.324 128.912C262.547 127.556 261.837 125.81 260.451 124.826Z" fill="url(#paint10_linear_12_2)"/>
</g>
</g>
<defs>
<linearGradient id="paint0_linear_12_2" x1="259.734" y1="98.1293" x2="259.734" y2="151.112" gradientUnits="userSpaceOnUse">
<stop stop-color="#0E1737"/>
<stop offset="1" stop-color="#828AE2"/>
</linearGradient>
<linearGradient id="paint1_linear_12_2" x1="344.129" y1="112.593" x2="342.5" y2="132.827" gradientUnits="userSpaceOnUse">
<stop stop-color="#3E467E"/>
<stop offset="1" stop-color="#6169B1"/>
</linearGradient>
<linearGradient id="paint2_linear_12_2" x1="178.462" y1="146.011" x2="178.306" y2="111.584" gradientUnits="userSpaceOnUse">
<stop stop-color="#6E76C4"/>
<stop offset="1" stop-color="#2A3260"/>
</linearGradient>
<linearGradient id="paint3_linear_12_2" x1="312.706" y1="144.641" x2="313.123" y2="105.658" gradientUnits="userSpaceOnUse">
<stop stop-color="#6870BB"/>
<stop offset="1" stop-color="#1C254B"/>
</linearGradient>
<linearGradient id="paint4_linear_12_2" x1="389.26" y1="110.674" x2="392.906" y2="149.337" gradientUnits="userSpaceOnUse">
<stop stop-color="#2F3868"/>
<stop offset="1" stop-color="#666FB9"/>
</linearGradient>
<linearGradient id="paint5_linear_12_2" x1="299.019" y1="98.6432" x2="300.753" y2="127.897" gradientUnits="userSpaceOnUse">
<stop stop-color="#0E1737"/>
<stop offset="1" stop-color="#47508C"/>
</linearGradient>
<linearGradient id="paint6_linear_12_2" x1="380.263" y1="115.613" x2="380.263" y2="135.657" gradientUnits="userSpaceOnUse">
<stop stop-color="#3F477F"/>
<stop offset="1" stop-color="#6B73C0"/>
</linearGradient>
<linearGradient id="paint7_linear_12_2" x1="336.483" y1="145.933" x2="339.004" y2="124.664" gradientUnits="userSpaceOnUse">
<stop stop-color="#6971BD"/>
<stop offset="1" stop-color="#474F8B"/>
</linearGradient>
<linearGradient id="paint8_linear_12_2" x1="61.6098" y1="106.849" x2="61.6098" y2="147.092" gradientUnits="userSpaceOnUse">
<stop stop-color="#2C3166"/>
<stop offset="1" stop-color="#4C5B9F"/>
</linearGradient>
<linearGradient id="paint9_linear_12_2" x1="214.581" y1="143.275" x2="214.538" y2="117.367" gradientUnits="userSpaceOnUse">
<stop stop-color="#6971BD"/>
<stop offset="1" stop-color="#2A325C"/>
</linearGradient>
<linearGradient id="paint10_linear_12_2" x1="247.145" y1="106.508" x2="252.096" y2="140.068" gradientUnits="userSpaceOnUse">
<stop stop-color="#1B244B"/>
<stop offset="1" stop-color="#626AB3"/>
</linearGradient>
<clipPath id="clip0_12_2">
<rect width="450" height="258" fill="white"/>
</clipPath>
</defs>
</svg>
