<svg width="450" height="258" viewBox="0 0 450 258" fill="none" xmlns="http://www.w3.org/2000/svg">
<path d="M238.129 51.5855C233.214 51.6013 227.974 54.7575 227.717 59.1873C227.742 59.2809 227.74 59.3666 227.748 59.4549C227.703 59.7502 227.666 60.0508 227.647 60.3593C227.592 60.557 227.533 60.7535 227.497 60.946C227.592 61.7924 225.541 61.2413 223.653 63.058C225.543 62.8774 226.642 63.1952 228.079 63.0765C228.131 63.3784 228.175 63.6935 228.221 63.9848C227.97 67.0567 228.136 68.6308 228.94 72.114C228.982 73.6881 229.55 75.4284 230.495 76.5873C230.533 77.6262 230.464 78.6848 230.492 79.7237C230.47 79.7421 230.442 79.7593 230.42 79.7777C230.3 80.4224 230.166 80.9986 230.04 81.6064C228.315 82.1614 226.856 82.843 224.829 83.1304H223.504C222.88 83.7725 222.216 84.2708 221.61 84.7573C221.174 84.7441 220.745 84.9695 220.377 85.0605L219.997 85.4679C218.659 85.8226 217.179 85.8805 217.179 87.0776C216.268 88.8904 216.492 90.1745 216.305 92.1758C216.399 93.5917 216.295 94.421 215.454 95.3254C214.862 96.4526 213.62 97.8105 213.853 98.8507C212.242 102.215 212.223 102.47 212.299 103.279C211.339 104.779 212.25 104.429 211.64 106.065C211.316 107.091 211.119 107.332 210.711 108.315C209.003 109.679 208.976 111.669 208.782 113.957C208.857 115.387 208.629 117.002 208.215 118.112C208.394 119.44 209.27 122.161 210.048 122.997C210.96 125.531 214.71 125.272 216.627 123.9C217.825 123.292 219.725 123.093 220.786 122.098C221.608 121.812 221.642 121.155 221.92 120.409C223.693 118.412 223.646 117.842 222.969 119.785C223.132 120.982 223.218 119.917 223.218 121.134C223.383 123.702 222.304 126.05 222.081 128.452C222.101 129.771 222.356 131.04 222.554 132.313C222.576 133.266 222.27 133.731 222.27 134.65C222.66 136.219 221.981 137.433 221.512 138.816C222.14 139.904 222.612 140.845 222.84 142.069C222.867 142.062 222.89 142.059 222.916 142.053V143.75C222.553 143.993 222.44 144.363 222.298 144.546C221.982 145.118 222.459 145.23 222.547 145.607C222.822 145.8 222.424 146.508 222.421 146.534C221.951 147.361 222.275 148.005 222.421 148.79C222.487 149.889 222.124 150.141 221.679 150.778C221.562 151.324 221.763 151.868 221.803 152.369C221.376 153.579 220.535 154.568 219.949 155.287C218.707 159.752 218.203 163.21 217.801 167.95C217.926 169.295 217.344 171.392 217.108 172.654C217.058 173.131 216.55 174.742 216.672 175.09C216.817 176.803 216.33 177.338 215.808 178.739C215.408 180.143 214.789 183.19 214.486 184.818C214.049 188.379 214.339 189.828 214.645 193.11C214.88 204.178 215.068 205.368 215.599 209.028C215.349 215.348 215.959 218.809 215.379 225.024C215.421 225.668 215.222 226.026 215.131 226.615C215.327 226.734 215.533 226.823 215.737 226.921C214.46 228.692 213.595 230.354 211.173 230.989C208.259 233.136 207.225 232.217 203.782 233.679C203.72 234.281 203.584 235.414 203.511 236.197C207.824 239.492 213.217 237.966 218.868 238.946C221.028 238.966 225.253 240.3 227.1 237.751C226.693 233.75 226.208 231.186 225.211 227.542C225.191 227.527 225.175 227.516 225.155 227.501C225.364 227.384 225.572 227.258 225.761 227.145C225.946 226.279 226.614 223.563 226.614 222.677C226.638 221.036 226.567 221.877 226.567 220.237C226.02 208.809 228.104 200.788 228.104 191.975C227.876 189.638 228.812 185.238 229.475 183.279C237.23 167.571 237.604 163.016 240.076 161.19C240.854 164.287 240.652 172.6 240.934 175.641C241.065 178.64 241.828 182.157 241.828 185.202C242.857 189.992 243.353 192.063 243.556 195.278C243.699 199.616 243.186 204.544 243.186 208.835C243.464 213.597 243.223 219.463 242.74 222.852V226.167C242.526 226.996 242.451 227.421 242.246 228.158C242.594 228.297 242.939 228.411 243.281 228.515C242.784 231.419 241.709 232.11 242.792 235.587C244.575 238.57 252.043 238.002 252.159 236.084C253.745 236.08 252.7 232.073 252.191 228.26C253.948 229.816 252.275 227.254 252.889 226.496C254.109 226.726 253.174 218.01 254.804 210.174C256.302 201.339 254.257 196.536 254.063 187.853C254.508 185.467 254.727 180.985 255.202 178.506C255.567 172.737 256.499 163.446 256.412 160.587C256.558 159.026 256.554 157.532 257.154 156.08C258.137 150.802 257.094 144.709 256.804 139.528C256.853 139.527 256.894 139.527 256.944 139.525C257.024 139.216 256.375 136.782 256.328 136.477C256.282 135.233 256.465 134.178 257.131 133.024C256.976 132.592 257.023 132.07 256.658 131.703C256.272 129.632 256.009 126.986 255.994 124.692C255.994 122.566 256.044 120.497 256.185 118.392C256.568 118.209 256.977 117.971 257.509 117.984C257.804 118.334 257.527 118.92 258.361 119.002C258.525 119.32 258.793 119.514 258.837 119.916C259.974 120.16 260.662 121.304 261.878 121.412C262.98 122.069 264.846 122.588 266.165 123.139C267.671 123.139 268.964 122.824 269.495 121.475C269.963 120.343 271.349 119.607 271.688 118.185C272.147 117.3 271.488 114.452 271.339 113.004C270.956 111.498 270.226 110.359 269.161 109.141V107.312C268.41 105.298 267.203 103.706 266.034 101.925V100.097C265.442 98.5093 264.457 97.4796 264.236 95.626C263.641 94.0307 263.054 92.6899 262.625 90.9497C262.625 89.9016 262.58 89.0803 262.529 88.1047C262.095 87.6973 261.552 86.9379 260.825 86.8865C260.164 85.9412 259.484 85.4072 258.457 84.8522C258.201 84.4606 257.963 84.3525 257.794 83.837C257.455 83.7276 256.966 83.3888 256.467 83.4297C255.894 82.9696 255.179 82.6439 254.383 82.2088C253.64 81.7658 252.616 81.3874 251.921 80.8878C249.949 79.9478 247.626 79.0869 245.289 78.5504C244.732 78.1008 244.346 78.0414 244.152 77.2293C243.995 77.1542 243.834 77.0936 243.672 77.029C243.365 75.41 243.334 73.7053 243.491 72.0283C243.851 71.8661 243.813 71.5537 244.188 71.5128C244.505 68.1813 245.277 66.4555 245.347 64.5478C245.459 64.0468 245.536 63.5537 245.625 63.0646C245.742 63.062 245.861 63.0607 245.982 63.0594C246.022 63.1082 246.059 63.1556 246.106 63.2057C246.083 63.1595 246.073 63.1042 246.053 63.0567C246.173 63.0554 246.277 63.0514 246.403 63.0514C246.163 61.2808 246.514 59.8728 246.514 58.126C245.58 53.4616 241.953 51.5736 238.129 51.5855Z" fill="url(#paint0_linear_12_2)"/>
<path d="M242.889 77.9257C238.761 77.9402 234.631 78.9817 230.494 79.6541C230.494 79.6765 230.494 79.7002 230.494 79.7239C230.471 79.7424 230.443 79.7596 230.421 79.778C230.301 80.4227 230.168 80.9989 230.041 81.6066C228.316 82.1617 226.857 82.8433 224.83 83.1307H223.506C222.882 83.7728 222.217 84.2711 221.611 84.7576C221.175 84.7444 220.746 84.9698 220.378 85.0608L219.999 85.4682C218.66 85.8229 217.18 85.8808 217.18 87.0779C216.269 88.8907 216.493 90.1748 216.306 92.1761C216.4 93.592 216.296 94.4213 215.455 95.3257C214.863 96.4529 213.621 97.8108 213.855 98.851C212.243 102.216 212.225 102.47 212.3 103.279C211.34 104.78 212.252 104.429 211.641 106.065C211.318 107.091 211.12 107.332 210.712 108.316C209.004 109.679 208.977 111.67 208.783 113.957C208.858 115.387 208.63 117.003 208.216 118.113C208.395 119.44 209.271 122.161 210.05 122.997C210.96 125.531 214.71 125.273 216.629 123.902C217.826 123.294 219.727 123.095 220.787 122.099C221.609 121.813 221.643 121.157 221.921 120.411C223.695 118.413 223.648 117.844 222.972 119.787C223.135 120.984 223.22 119.919 223.22 121.136C223.386 123.704 222.307 126.052 222.083 128.454C222.103 129.772 222.359 131.042 222.557 132.314C222.579 133.267 222.272 133.733 222.272 134.652C222.663 136.221 221.983 137.435 221.515 138.818C222.143 139.905 222.615 140.847 222.842 142.07C222.869 142.064 222.893 142.061 222.919 142.054V143.751C222.555 143.995 222.443 144.364 222.301 144.547C222.208 144.715 222.196 144.838 222.209 144.944C224.536 143.498 227.161 143.513 229.862 144.377C237.827 147.495 246.729 146.952 255.063 146.211C255.656 145.306 256.361 144.503 257.136 143.766C257.007 142.314 256.879 140.89 256.803 139.532C256.852 139.531 256.893 139.531 256.942 139.53C257.023 139.22 256.374 136.786 256.327 136.48C256.281 135.236 256.464 134.181 257.13 133.027C256.976 132.595 257.021 132.073 256.657 131.706C256.271 129.635 256.009 126.989 255.993 124.695C255.993 122.569 256.043 120.5 256.184 118.395C256.567 118.213 256.977 117.974 257.508 117.987C257.802 118.337 257.526 118.923 258.36 119.004C258.524 119.322 258.792 119.515 258.835 119.917C259.972 120.161 260.661 121.306 261.877 121.414C262.979 122.07 264.845 122.59 266.163 123.142C267.67 123.142 268.962 122.826 269.494 121.478C269.963 120.346 271.347 119.61 271.687 118.188C272.146 117.303 271.487 114.455 271.337 113.006C270.954 111.501 270.225 110.362 269.16 109.144V107.315C268.409 105.301 267.201 103.709 266.032 101.928V100.1C265.44 98.5122 264.456 97.4839 264.234 95.6289C263.64 94.0337 263.053 92.6929 262.624 90.9526C262.624 89.9045 262.578 89.0831 262.528 88.1075C262.093 87.7002 261.55 86.9408 260.824 86.8893C260.163 85.9441 259.484 85.4102 258.456 84.8551C258.2 84.4636 257.962 84.3554 257.792 83.8399C257.454 83.7305 256.965 83.3917 256.465 83.4326C255.893 82.9725 255.178 82.6468 254.382 82.2118C253.639 81.7688 252.615 81.3904 251.92 80.8907C249.948 79.9507 247.625 79.0911 245.288 78.5532C244.988 78.312 244.742 78.1762 244.544 77.9811C243.994 77.9468 243.442 77.9231 242.889 77.9257Z" fill="#191C2A"/>
<path d="M240.492 66.7955C239.156 66.8403 234.853 67.4032 233.628 67.6247C229.666 68.98 230.73 78.6899 230.153 81.1922C227.93 81.8329 222.731 81.7341 222.41 83.8342C224.252 83.3399 226.124 83.2581 227.634 83.8289C227.142 86.6015 226.872 89.2871 226.722 91.1776C225.787 92.2297 225.657 101.312 225.641 102.402C225.505 111.748 225.467 115.872 225.469 118.661C224.214 118.215 223.508 117.492 223.263 116.758C222.201 116.746 223.506 119.968 222.636 125.747C222.422 127.168 224.297 128.359 226.092 128.945C226.397 130.283 226.856 131.462 227.576 131.806C226.768 142.037 257.412 142.108 257.412 134.038C258.438 133.147 258.943 131.156 259.21 129.72C259.398 121.941 260.673 118.68 260.673 111.028C260.137 107.671 261.405 100.791 260.139 96.3746C261.659 93.7221 259.489 87.9727 257.59 86.6767C261.421 81.1395 259.007 72.8337 256.979 69.3835C253.951 67.7671 244.5 66.661 240.492 66.7955Z" fill="#10152D"/>
<path d="M223.126 83.3083C224.966 82.7243 225.546 82.6504 227.263 82.8337C227.302 82.4988 228.934 82.0216 229.588 81.5852C227.761 81.8133 223.858 82.0005 223.126 83.3083Z" fill="url(#paint1_linear_12_2)"/>
<path d="M223.009 83.5829C222.537 84.0087 222.06 84.3964 221.611 84.7576C221.175 84.7444 220.746 84.9699 220.378 85.0608L219.999 85.4682C218.66 85.8229 217.18 85.8808 217.18 87.0779C216.797 87.8413 216.637 88.5097 216.54 89.1794C216.626 89.2941 216.702 89.4088 216.81 89.5248C217.19 88.7417 217.609 88.0694 218.056 87.4339C218.791 86.7905 219.56 86.4833 220.73 86.4833C220.951 85.7384 220.73 86.3871 220.73 85.9112C222.428 84.9501 224.371 85.0898 226.253 84.4873C225.514 83.8295 224.322 83.5578 223.009 83.5829ZM216.81 91.0423C216.662 91.3284 216.474 91.6883 216.319 91.985C216.312 92.0562 216.314 92.1023 216.306 92.1761C216.4 93.592 216.296 94.4213 215.455 95.3258C214.863 96.453 213.621 97.8108 213.854 98.851C212.243 102.216 212.225 102.47 212.3 103.279C211.34 104.78 212.252 104.429 211.641 106.065C211.317 107.091 211.12 107.332 210.712 108.316C210.052 108.842 209.647 109.465 209.382 110.159C209.239 111.763 209.287 113.352 209.595 114.9C209.595 112.113 209.543 109.939 211.376 108.056C211.614 107.484 211.704 107.101 211.998 106.537C213.219 104.8 215.168 104.417 216.453 102.448C215.508 103.204 214.22 103.93 212.713 103.874C212.83 103.687 213.222 103.381 213.246 103.02C214.025 101.526 215.137 99.5854 216.543 98.5518C215.977 98.6612 215.505 98.6678 214.938 98.743C215.356 97.7423 215.651 96.7245 216.097 95.7977C217.593 95.0884 219.45 94.8406 219.84 92.9474C219.083 93.0278 218.375 93.0673 217.612 93.2308C217.19 92.0772 216.73 93.6171 216.81 91.0423Z" fill="#2C314A"/>
<path d="M223.979 62.8178C225.228 62.5449 226.557 62.4658 227.597 62.0624C227.993 61.7631 228.341 61.9042 228.777 61.8106C229.007 61.4678 228.667 61.2859 228.62 61.0552C227.733 58.9207 230.014 55.7091 230.902 54.0071C229.101 54.9128 227.283 58.7269 227.283 60.8877C226.176 61.6089 225.103 62.2852 223.979 62.8178Z" fill="#514177"/>
<path d="M242.825 170.538C241.842 171.168 242.354 168.081 241.147 168.288C241.046 167.799 240.894 167.526 240.876 166.991C240.79 167.032 240.717 167.087 240.633 167.13C240.757 170.393 240.773 173.88 240.937 175.642C241.069 178.642 241.83 182.158 241.83 185.203C242.351 188.635 242.294 191.05 242.585 194.501C242.729 198.838 243.188 204.545 243.188 208.837C243.46 213.489 243.232 220.479 242.771 223.962C244.978 215.393 243.408 204.504 244.928 195.823C244.517 195.472 244.288 194.742 243.577 194.669C243.577 193.036 243.577 191.4 243.577 189.766C243.014 186.77 243.066 183.278 242.901 179.963C242.593 180.237 242.768 180.855 242.092 180.684C241.855 178.147 241.989 174.953 241.958 172.179C242.824 170.514 241.813 172.387 242.825 170.538Z" fill="#222F64"/>
<path d="M222.778 118.416C223.45 118.81 224.556 119.842 224.929 120.249C224.699 122.553 224.657 124.778 224.424 127.087C223.737 126.971 222.869 125.913 222.421 125.735C222.361 122.774 223.062 121.23 222.778 118.416Z" fill="url(#paint2_linear_12_2)"/>
<path d="M231.066 85.0277C231.215 85.1754 231.365 85.3231 231.513 85.4694C232.193 86.7153 232.975 87.5301 233.603 88.3435C231.507 92.3553 228.576 95.2465 227.335 99.8397C227.601 94.4607 228.833 88.304 229.052 84.9157C229.574 84.8815 230.319 84.9539 231.066 85.0277Z" fill="url(#paint3_linear_12_2)"/>
<path d="M226.439 99.9608C227.464 96.5237 230.191 94.3392 231.364 91.5218C231.957 91.0221 232.508 90.856 233.005 90.5659C232.818 92.2798 231.837 92.7334 230.767 93.5917C231.117 94.148 231.661 93.8039 232.11 93.9093C231.016 95.3029 230.067 95.8263 229.274 97.0933C229.624 97.647 230.169 97.3055 230.617 97.411C228.744 100.111 227.474 103.091 226.439 105.85C226.162 103.919 226.276 101.884 226.439 99.9608Z" fill="url(#paint4_linear_12_2)"/>
<path d="M234.349 105.055C231.382 108.22 228.513 111.647 227.186 116.839C227.186 118.324 227.088 119.835 227.335 121.296C227.6 121.202 227.833 120.795 228.231 120.977C229.588 119.529 230.559 118.364 232.26 117.156C232.26 115.019 232.928 113.142 232.708 110.948C232.88 108.931 233.125 106.778 234.349 105.055ZM235.868 108.094C235.655 108.114 235.319 108.63 234.647 110.311C233.987 117.353 234.418 125.314 234.5 132.919C235.517 133.732 236.216 134.281 238.081 133.715C237.002 129.495 235.772 125.119 236.438 120.021C236.438 116.19 236.452 112.671 236.886 109.036C236.231 109.408 236.221 108.061 235.868 108.094ZM232.26 120.5C230.573 121.499 228.577 122.729 227.783 124.641C228.194 126.835 228.935 129.249 229.872 131.328C230.572 131.531 231.928 132.127 233.154 131.804C232.776 129.789 232.035 128.125 232.109 125.912C231.946 123.989 232.045 122.493 232.26 120.5Z" fill="url(#paint5_linear_12_2)"/>
<path d="M216.217 227.016C215.995 227.121 215.694 227.235 215.442 227.343C214.319 228.949 213.401 230.408 211.175 230.992C208.262 233.138 207.848 232.386 204.404 233.846C204.365 234.227 204.296 234.858 204.232 235.44C205.241 234.726 203.201 235.734 204.725 235.931C205.36 235.659 206.117 234.917 207.336 234.815C208.965 234.467 210.497 234.098 212.038 233.144C213.416 232.328 212.509 233.795 213.866 232.308C213.955 231.098 215.717 228.206 216.217 227.016Z" fill="#3F335D"/>
<path d="M231.365 98.2891C229.983 102.068 228.893 105.088 227.97 109.05C227.137 111.74 227.448 114.864 227.448 117.793C227.983 115.313 229.425 112.982 230.581 111.068C233.021 106.636 231.765 103.444 231.365 98.2891Z" fill="url(#paint6_linear_12_2)"/>
<path d="M237.633 108.041C238.868 109.865 239.198 112.587 239.722 114.45C241.476 117.339 244.915 117.236 248.602 117.236C249.119 118.766 248.743 120.194 248.602 121.693C246.411 121.052 247.826 119.708 247.296 118.35C244.89 118.199 242.178 117.926 240.245 117.514C238.047 114.719 238.184 110.981 237.633 108.041Z" fill="#25293D"/>
<path d="M233.715 69.5908C235.259 73.3126 234.759 77.5169 234.759 81.5723C236.193 81.9783 235.468 83.2716 235.804 84.0798C234.579 83.6645 233.249 82.7113 231.886 82.1299C231.456 77.4391 232.986 73.4761 233.715 69.5908Z" fill="url(#paint7_linear_12_2)"/>
<path d="M237.893 84.3582C240.881 85.4999 244.068 85.1941 247.295 85.1941C247.295 84.8223 247.295 84.4505 247.295 84.08C245.392 84.2646 243.631 83.9679 242.071 83.8018C240.061 82.9976 238.69 81.8612 237.11 80.7366C237.556 82.3766 237.571 82.8671 237.893 84.3582Z" fill="#232738"/>
<path d="M222.144 137.161C224.17 138.731 223.213 139.397 225.62 138.969C227.921 138.131 223.277 140.838 223.277 140.838C223.726 142.554 224.925 140.801 226.249 141.348C225.529 141.759 224.925 143.385 224.925 143.445C224.036 143.464 224.135 143.506 223.009 143.706C223.149 142.402 222.52 141.009 222.375 140.239C220.563 138.194 222.259 137.571 222.144 137.161Z" fill="#2C314A"/>
<path d="M224.08 144.19C223.815 144.199 223.545 144.221 223.27 144.262C222.927 144.536 222.594 144.828 222.267 145.127C222.356 145.284 222.503 145.41 222.55 145.608C222.795 145.78 222.533 146.299 222.464 146.445C224.817 145.946 226.908 145.533 229.278 145.099C227.548 144.729 225.935 144.121 224.08 144.19ZM227.97 147.884C226.827 147.98 226.102 148.184 225.564 148.502C226.35 148.295 227.126 148.064 227.97 147.884ZM225.564 148.502C224.597 148.757 223.612 148.974 222.485 148.999C222.465 148.812 222.402 148.588 222.333 148.353C222.368 148.499 222.396 148.637 222.424 148.791C222.491 149.89 222.128 150.142 221.683 150.779C221.566 151.325 221.767 151.871 221.806 152.37C221.38 153.581 220.539 154.569 219.953 155.288C218.712 159.753 218.207 163.211 217.805 167.951C217.93 169.296 217.348 171.393 217.112 172.655C217.061 173.132 216.553 174.743 216.674 175.091C216.819 176.804 216.332 177.339 215.811 178.741C215.41 180.145 214.791 183.191 214.488 184.82C214.449 185.14 214.437 185.419 214.42 185.703C215.085 183.655 215.834 181.682 216.74 179.649C217.166 173.677 218.928 167.09 220.918 157.636C221.949 155.16 222.23 154.071 225.62 153.178H223.53C223.53 152.729 222.358 151.439 223.53 150.949C224.329 149.813 224.702 149.011 225.564 148.502Z" fill="#222F64"/>
<path d="M255.579 140.468C255.078 140.464 254.833 140.879 254.609 140.919C254.664 143.498 255.948 146.567 256.957 148.721C256.322 151.856 255.758 154.593 254.609 156.802L254.085 157.917C254.486 163.557 255.391 168.894 255.391 174.634C254.461 179.992 254.559 181.714 252.447 185.769C252.423 188.009 252.27 189.288 252.464 191.36C257.433 202.707 251.735 215.054 251.735 225.624C252.232 228.953 251.28 229.453 249.908 230.918C250.418 231.104 250.908 231.2 251.38 231.215C251.336 230.645 251.279 230.077 251.262 229.5C251.622 229.402 251.966 229.156 252.579 228.397C253.799 228.627 253.173 218.014 254.804 210.177C256.302 201.343 254.257 196.54 254.063 187.857C254.508 185.471 254.727 180.989 255.202 178.51C255.567 172.741 256.499 163.45 256.412 160.59C256.558 159.03 256.554 157.536 257.154 156.084C257.973 151.689 257.403 146.758 257.016 142.231C256.743 141.608 256.465 141.052 256.176 140.642C255.943 140.517 255.746 140.469 255.579 140.468Z" fill="#182146"/>
<path d="M253.824 156.242C247.726 156.242 243.316 158.45 236.85 158.195C239.321 160.171 241.648 160.388 244.946 160.143C247.789 158.795 250.76 156.527 253.824 156.242ZM239.132 162.156C235.372 166.1 231.187 169.414 227.448 172.961C229.697 172.183 231.329 171.124 232.932 170.175C230.92 174.932 228.023 178.996 225.621 183.269C225.63 187.958 224.544 192.353 223.792 196.366C225.085 194.095 226.066 191.439 227.077 188.934C227.149 187.778 227.357 186.707 227.753 185.541C234.51 171.849 236.973 164.921 239.132 162.156Z" fill="#1A234B"/>
<path d="M248.008 68.1298C247.605 68.1219 247.194 68.1417 246.772 68.197C250.773 70.5688 255.803 70.5781 257.22 75.4402C257.629 76.8971 258.255 79.1673 258.787 81.0143C259.217 76.4237 258.666 73.4969 255.652 70.4264C253.233 69.6525 250.829 68.1892 248.008 68.1298ZM256.957 86.0282C253.74 86.9642 250.671 87.2741 247.035 86.8654C250.801 87.2675 254.604 88.9075 258.003 89.9292C258.268 91.3505 258.503 92.8468 258.787 94.3867C259.205 96.616 259.776 98.3682 259.833 100.795C259.547 97.4493 259.854 93.7605 259.048 90.4883C258.653 88.3815 258.91 87.3756 256.957 86.0282ZM259.048 105.534C256.319 105.825 253.481 105.792 250.689 106.09C253.155 106.09 255.975 106.251 258.263 108.319C258.423 109.42 259.248 110.516 258.787 111.94C257.877 114.124 258.548 114.547 255.391 115.284C257.93 115.284 258.645 115.729 259.833 113.613C260.116 110.584 261.076 107.601 259.048 105.534ZM259.048 117.515C257.76 120.607 257.954 123.232 256.437 126.43C255.53 128.608 254.814 130.077 253.304 132.003C256.423 131.337 257.366 129.87 258.788 127.267C259.053 124.137 259.244 120.739 259.048 117.515Z" fill="#1C2341"/>
<path d="M216.467 227.153C219.926 228.354 222.282 228.347 224.356 227.974C225.201 230.791 226.087 233.776 226.087 236.802C225.776 237.953 225.21 238.243 224.259 238.546C222.459 238.702 221.295 238.033 219.545 238.033C219.687 236.866 209.233 238.062 209.636 237.096C209.224 235.189 218.435 233.164 217.044 232.491C218.346 232.682 218.653 231.982 219.161 231.259C218.931 229.378 217.113 229.05 216.467 227.153Z" fill="#121935"/>
<path d="M253.123 146.751C252.323 146.713 251.564 146.74 250.813 147.06C243.543 150.162 236.96 145.995 232.246 147.366C232.392 151.209 231.131 154.206 229.552 157.014C229.099 157.556 228.892 158.046 228.589 158.554C235.522 157.624 242.424 157.556 248.987 154.755C252.224 153.003 253.123 150.722 253.123 146.751ZM238.208 161.019C233.907 161.937 229.637 162.958 225.028 162.559C225.028 164.442 224.414 166.219 225.028 168.1C225.893 167.823 226.806 167.491 227.722 167.178C225.872 169.152 222.348 174.617 221.646 177.422C226.882 176.469 234.291 171.073 238.208 161.019ZM232.341 172.822C229.448 175.136 226.17 177.495 222.334 178.982C221.821 180.215 221.005 180.035 221.276 181.753C220.074 183.036 232.971 172.389 219.379 186.718C219.379 188.551 219.104 191.421 219.446 193.147C219.75 191.427 226.957 184.724 230.56 179.13C229.492 179.358 222.291 185.147 221.18 185.24C225.558 181.737 231.424 176.154 234.259 170.944L232.341 172.822ZM225.275 196.18C224.725 196.383 222.34 200.991 221.662 202.077C220.946 205.615 219.889 209.579 218.968 212.854C219.732 212.696 220.948 211.895 221.374 211.622C220.074 215.38 218.901 219.363 217.947 223.048C220.584 223.698 223.467 224.674 226.088 223.836C225.211 222.391 225.107 220.856 225.415 219.216C226.102 211.909 226.543 204.03 225.318 196.842C225.431 196.323 225.401 196.133 225.275 196.18ZM217.947 223.048C217.904 223.037 217.858 223.025 217.815 223.015V223.53C217.855 223.373 217.907 223.203 217.947 223.048Z" fill="url(#paint8_linear_12_2)"/>
<path d="M226.536 91.4229C224.388 93.3226 222.728 94.8546 220.458 96.2007H223.018C221.54 101.652 217.014 106.33 212.781 109.34C216.08 107.949 219.497 105.738 222.697 104.22C221.456 106.948 219.59 109.754 217.579 111.9C217.948 114.708 217.252 116.749 216.139 118.725C219.262 117.693 221.808 114.349 224.457 113.094C224.125 93.8803 226.642 97.9594 226.536 91.4229Z" fill="#0B1021"/>
<path d="M228.164 63.1084C229.915 63.1321 229.341 64.9251 229.709 65.5804C229.432 67.5896 229.347 68.7748 230.172 70.3595C230.432 72.1116 229.864 73.7583 229.864 75.633C228.109 71.9376 228.32 67.1163 228.164 63.1084Z" fill="#5C5049"/>
<path d="M228.916 63.1461C230.949 62.9259 232.985 63.2345 234.976 63.4309C236.34 64.1296 237.765 64.2852 239.384 64.2852C242.064 64.7559 244.185 63.862 246.27 63.4309C245.021 64.156 245.019 65.1355 244.893 66.5633C241.876 66.1507 238.877 66.7058 235.941 66.7058C233.245 66.9918 231.962 68.127 231.259 70.5515C230.364 70.3933 230.764 69.7855 230.432 69.27C231.219 66.6926 230.161 65.0775 228.916 63.1461Z" fill="#302125"/>
<path d="M233.988 52.4646C235.785 53.4679 235.456 54.6637 235.456 56.5951C234.619 57.7882 234.789 59.0842 234.789 60.5832C234.588 61.2978 234.521 62.0137 234.389 62.719C232.386 62.6834 230.899 62.2233 229.049 61.8647C228.105 56.9036 231.323 54.5977 233.988 52.4646Z" fill="#262C48"/>
<path d="M222.688 127.03C223.649 127.513 224.526 131.141 225.092 131.82C223.875 132.516 223.602 133.416 223.008 134.557C223.756 134.394 224.605 134.658 225.252 134.728C225.378 136.081 224.785 137.174 224.45 137.978C223.481 137.958 222.961 137.758 222.045 137.465C222.045 136.837 222.045 136.211 222.045 135.584L221.564 134.728C221.871 132.557 222.49 129.141 222.688 127.03Z" fill="#2C314A"/>
<path d="M243.473 235.864C243.234 235.355 243.061 235.471 242.8 235.137C242.742 234.229 242.64 233.644 242.563 232.748C242.81 230.783 243.163 229.874 243.85 228.225C244.374 228.543 243.74 229.777 243.983 229.888C242.983 232.44 243.028 232.78 243.072 234.245L243.473 235.864Z" fill="#3F335D"/>
<defs>
<linearGradient id="paint0_linear_12_2" x1="227.238" y1="145.414" x2="261.174" y2="145.726" gradientUnits="userSpaceOnUse">
<stop stop-color="#182146"/>
<stop offset="1" stop-color="#111832"/>
</linearGradient>
<linearGradient id="paint1_linear_12_2" x1="223.126" y1="82.4469" x2="231.111" y2="82.4469" gradientUnits="userSpaceOnUse">
<stop stop-color="#515774"/>
<stop offset="1" stop-color="#10152D"/>
</linearGradient>
<linearGradient id="paint2_linear_12_2" x1="223.188" y1="122.612" x2="226.094" y2="123.66" gradientUnits="userSpaceOnUse">
<stop stop-color="#515774"/>
<stop offset="1" stop-color="#10152D"/>
</linearGradient>
<linearGradient id="paint3_linear_12_2" x1="227.971" y1="92.2162" x2="236.18" y2="93.4988" gradientUnits="userSpaceOnUse">
<stop stop-color="#2C3146"/>
<stop offset="1" stop-color="#202333"/>
</linearGradient>
<linearGradient id="paint4_linear_12_2" x1="226.818" y1="98.7901" x2="234.122" y2="97.5066" gradientUnits="userSpaceOnUse">
<stop stop-color="#232738"/>
<stop offset="1" stop-color="#202232"/>
</linearGradient>
<linearGradient id="paint5_linear_12_2" x1="227.26" y1="120.441" x2="233.026" y2="119.872" gradientUnits="userSpaceOnUse">
<stop stop-color="#2C3146"/>
<stop offset="1" stop-color="#202333"/>
</linearGradient>
<linearGradient id="paint6_linear_12_2" x1="227.39" y1="108.041" x2="233.142" y2="108.041" gradientUnits="userSpaceOnUse">
<stop stop-color="#2C3146"/>
<stop offset="1" stop-color="#202333"/>
</linearGradient>
<linearGradient id="paint7_linear_12_2" x1="232.423" y1="76.9206" x2="236.818" y2="76.7786" gradientUnits="userSpaceOnUse">
<stop stop-color="#2C3146"/>
<stop offset="1" stop-color="#202333"/>
</linearGradient>
<linearGradient id="paint8_linear_12_2" x1="232.82" y1="185.217" x2="213.471" y2="184.492" gradientUnits="userSpaceOnUse">
<stop stop-color="#121A36"/>
<stop offset="1" stop-color="#161E3F"/>
</linearGradient>
</defs>
</svg>
